<svg width="304" height="327" viewBox="0 0 304 327" fill="none" xmlns="http://www.w3.org/2000/svg">
<circle cx="131.264" cy="175.022" r="131.264" fill="#FF3377"/>
<circle cx="131.5" cy="175.258" r="131.5" fill="url(#paint0_linear_570_667)"/>
<ellipse opacity="0.5" cx="153.451" cy="147.69" rx="114.518" ry="97.7418" transform="rotate(38.3163 153.451 147.69)" fill="white" fill-opacity="0.15"/>
<path d="M180.82 237.15C166.682 244.724 141.353 249.887 128.274 246.617C141.353 245.215 167.046 242.413 191.564 221.332C176.925 229.487 144.623 231.095 131.18 227.932C115.297 224.194 108.322 220.925 91.5048 205.509C91.5048 205.509 94.6402 215.786 91.5048 221.332C91.5048 221.332 92.1097 217.083 89.7591 210.678C86.4897 201.769 78.7261 195.29 69.3681 193.65C60.002 192.012 50.4344 195.453 44.246 202.714C44.2435 202.721 44.2326 202.73 44.2244 202.742C23.0542 227.627 51.6144 282.502 116.95 285.328C156.437 286.387 185.104 262.834 193.53 255.481C218.433 233.751 238.411 194.982 235.57 160.664C234.167 169.824 227.066 212.375 180.82 237.15Z" fill="white"/>
<path d="M28.3066 214.373L39.9849 210.169L39.0506 219.979L28.3066 214.373Z" fill="white"/>
<circle cx="55.7196" cy="211.151" r="8.605" fill="#FF3D83"/>
<circle cx="55.7194" cy="211.15" r="4.3025" fill="white"/>
<defs>
<linearGradient id="paint0_linear_570_667" x1="39" y1="268.758" x2="246" y2="89.2579" gradientUnits="userSpaceOnUse">
<stop stop-color="#FF357D"/>
<stop offset="1" stop-color="#FF5996"/>
</linearGradient>
</defs>
</svg>
