<svg width="303" height="305" viewBox="0 0 303 305" fill="none" xmlns="http://www.w3.org/2000/svg">
<circle cx="131.5" cy="173.5" r="131.5" fill="url(#paint0_linear_1012_708)"/>
<ellipse opacity="0.5" cx="152.451" cy="147.69" rx="114.518" ry="97.7418" transform="rotate(38.3163 152.451 147.69)" fill="white" fill-opacity="0.15"/>
<path d="M64.9992 141.96C53.6455 132.017 74.9332 128.78 87.1912 127.47C107.191 125.334 86.1912 113.072 62.1912 117.586C56.4396 118.667 49.6912 121.581 46.1912 128.572C43.6391 133.67 43.9992 144.46 43.9992 164.46C43.9992 179.575 41.191 189.575 54.1911 192.075C67.1911 194.575 87.1614 183.075 84.9992 187.575C82.837 192.075 52.1911 193.063 43.9992 219.46C38.4921 237.206 56.6343 252.075 76.6905 252.075C97.6905 252.075 111.999 231.46 110.999 224.96C110.199 219.76 106.358 221.909 103.691 224.075C101.024 226.242 95.6905 230.075 91.1905 232.575C84.6928 236.185 64.9992 238.599 64.9992 224.96C64.9992 211.321 79.6911 205.575 94.4992 194.46C112.631 180.85 107.191 169.989 89.9992 159.96C79.9105 154.075 77.6912 153.075 64.9992 141.96Z" fill="white"/>
<path d="M141.19 202.575C141.19 209.964 133.355 220.075 123.69 220.075C114.025 220.075 106.19 214.631 106.19 202.575C106.19 190.52 114.025 185.075 123.69 185.075C131.079 185.075 141.19 192.91 141.19 202.575Z" fill="white"/>
<path d="M147.69 179.075C117.69 170.275 107.19 190.075 106.19 201.075L117.19 188.075C147.19 172.575 147.69 206.075 147.69 211.075C147.69 214.575 150.69 223.075 160.19 223.075C167.79 223.075 170.357 215.075 170.69 211.075V153.076C170.69 119.575 154.69 116.834 145.19 116.076C134.28 115.204 108.685 122.076 119.19 125.572C123.69 127.07 127.19 127.364 137.69 130.075C148.19 132.787 147.524 142.575 147.69 146.075V179.075Z" fill="white"/>
<path d="M195.19 146.785C187.19 144.385 182.19 147.79 170.19 161.29V212.575C170.19 184.575 182.69 165.075 188.19 165.075C199.213 165.075 160.69 236.075 177.69 249.075C190.755 259.066 227.19 225.075 210.69 214.075C199.451 206.582 202.19 171.79 205.69 161.29C209.19 150.79 205.19 149.785 195.19 146.785Z" fill="white"/>
<path d="M79.4037 171.146C81.7397 175.056 77.4017 182.477 69.4498 183.779C61.4978 185.081 59.464 182.683 58.6841 177.921C57.4638 170.469 60.601 160.777 60.601 160.777C60.601 160.777 74.1895 162.417 79.4037 171.146Z" fill="#FF5593"/>
<ellipse cx="128" cy="201.5" rx="7" ry="6.5" fill="#FF5593"/>
<path d="M202.931 126.297C199.742 128.006 194.029 129.17 191.079 128.433C194.029 128.117 199.824 127.484 205.355 122.729C202.053 124.569 194.767 124.931 191.734 124.218C188.151 123.375 186.578 122.637 182.785 119.16C182.785 119.16 183.492 121.478 182.785 122.729C182.785 122.729 182.921 121.771 182.391 120.326C181.653 118.316 179.902 116.855 177.791 116.485C175.679 116.116 173.52 116.892 172.124 118.53C172.124 118.531 172.121 118.533 172.12 118.536C167.344 124.149 173.787 136.527 188.524 137.165C197.431 137.404 203.898 132.091 205.798 130.432C211.416 125.531 215.922 116.785 215.281 109.044C214.965 111.111 213.363 120.709 202.931 126.297Z" fill="white"/>
<path d="M168.529 121.16L171.163 120.212L170.953 122.425L168.529 121.16Z" fill="white"/>
<circle cx="174.712" cy="120.433" r="1.94103" fill="#FF5E99"/>
<circle cx="174.713" cy="120.433" r="0.970515" fill="white"/>
<defs>
<linearGradient id="paint0_linear_1012_708" x1="39" y1="267" x2="246" y2="87.5" gradientUnits="userSpaceOnUse">
<stop stop-color="#FF357D"/>
<stop offset="1" stop-color="#FF5996"/>
</linearGradient>
</defs>
</svg>
