<svg width="341" height="341" viewBox="0 0 341 341" fill="none" xmlns="http://www.w3.org/2000/svg">
<rect width="341" height="341" rx="9" fill="url(#paint0_linear_1377_82)"/>
<circle cx="168.5" cy="174.5" r="131.5" fill="url(#paint1_linear_1377_82)"/>
<ellipse opacity="0.5" cx="189.451" cy="148.69" rx="114.518" ry="97.7418" transform="rotate(38.3163 189.451 148.69)" fill="white" fill-opacity="0.15"/>
<path d="M101.999 142.96C90.6455 133.017 111.933 129.78 124.191 128.47C144.191 126.334 123.191 114.072 99.1912 118.586C93.4395 119.667 86.6912 122.581 83.1912 129.572C80.6391 134.67 80.9992 145.46 80.9992 165.46C80.9992 180.575 78.191 190.575 91.191 193.075C104.191 195.575 124.161 184.075 121.999 188.575C119.837 193.075 89.191 194.063 80.9992 220.46C75.4921 238.206 93.6343 253.075 113.69 253.075C134.69 253.075 148.999 232.46 147.999 225.96C147.199 220.76 143.358 222.909 140.691 225.075C138.024 227.242 132.69 231.075 128.19 233.575C121.693 237.185 101.999 239.599 101.999 225.96C101.999 212.321 116.691 206.575 131.499 195.46C149.631 181.85 144.191 170.989 126.999 160.96C116.911 155.075 114.691 154.075 101.999 142.96Z" fill="white"/>
<path d="M178.19 203.575C178.19 210.964 170.355 221.075 160.69 221.075C151.025 221.075 143.19 215.631 143.19 203.575C143.19 191.52 151.025 186.075 160.69 186.075C168.079 186.075 178.19 193.91 178.19 203.575Z" fill="white"/>
<path d="M184.69 180.075C154.69 171.275 144.19 191.075 143.19 202.075L154.19 189.075C184.19 173.575 184.69 207.075 184.69 212.075C184.69 215.575 187.69 224.075 197.19 224.075C204.79 224.075 207.357 216.075 207.69 212.075V154.076C207.69 120.575 191.69 117.834 182.19 117.076C171.28 116.204 145.685 123.076 156.19 126.572C160.69 128.07 164.19 128.364 174.69 131.075C185.19 133.787 184.524 143.575 184.69 147.075V180.075Z" fill="white"/>
<path d="M232.19 147.785C224.19 145.385 219.19 148.79 207.19 162.29V213.575C207.19 185.575 219.69 166.075 225.19 166.075C236.213 166.075 197.69 237.075 214.69 250.075C227.755 260.066 264.19 226.075 247.69 215.075C236.451 207.582 239.19 172.79 242.69 162.29C246.19 151.79 242.19 150.785 232.19 147.785Z" fill="white"/>
<path d="M116.404 172.146C118.74 176.056 114.402 183.477 106.45 184.779C98.4978 186.081 96.464 183.683 95.6841 178.921C94.4637 171.469 97.601 161.777 97.601 161.777C97.601 161.777 111.189 163.417 116.404 172.146Z" fill="#FF5593"/>
<ellipse cx="165" cy="202.5" rx="7" ry="6.5" fill="#FF5593"/>
<path d="M239.931 127.297C236.742 129.006 231.029 130.17 228.079 129.433C231.029 129.117 236.824 128.484 242.355 123.729C239.053 125.569 231.767 125.931 228.734 125.218C225.151 124.375 223.578 123.637 219.785 120.16C219.785 120.16 220.492 122.478 219.785 123.729C219.785 123.729 219.921 122.771 219.391 121.326C218.653 119.316 216.902 117.855 214.791 117.485C212.679 117.116 210.52 117.892 209.124 119.53C209.124 119.531 209.121 119.533 209.12 119.536C204.344 125.149 210.787 137.527 225.524 138.165C234.431 138.404 240.898 133.091 242.798 131.432C248.416 126.531 252.922 117.785 252.281 110.044C251.965 112.111 250.363 121.709 239.931 127.297Z" fill="white"/>
<path d="M205.529 122.16L208.163 121.212L207.953 123.425L205.529 122.16Z" fill="white"/>
<circle cx="211.712" cy="121.433" r="1.94103" fill="#FF5E99"/>
<circle cx="211.713" cy="121.433" r="0.970515" fill="white"/>
<defs>
<linearGradient id="paint0_linear_1377_82" x1="-4.30223e-06" y1="341" x2="349.837" y2="4.55317e-06" gradientUnits="userSpaceOnUse">
<stop stop-color="#FF3880"/>
<stop offset="1" stop-color="#FF649D"/>
</linearGradient>
<linearGradient id="paint1_linear_1377_82" x1="76" y1="268" x2="283" y2="88.5" gradientUnits="userSpaceOnUse">
<stop stop-color="#FF357D"/>
<stop offset="1" stop-color="#FF5996"/>
</linearGradient>
</defs>
</svg>
